<svg xmlns="http://www.w3.org/2000/svg" viewBox="0 0 126 76.39"><title>IconoIndicadores</title><g id="Capa_1" data-name="Capa 1"><rect width="126" height="76.39" style="fill:#89b450"/></g><g id="TEXTOS"><text transform="translate(44.44 60.85)" style="font-size:8.346170425415039px;fill:#fff;font-family:Aleo-Regular, Aleo">A </text><text transform="translate(63.17 60.85)" style="font-size:8.346170425415039px;fill:#fff;font-family:Aleo-Regular, Aleo">B </text><text transform="translate(81.28 60.85)" style="font-size:8.346170425415039px;fill:#fff;font-family:Aleo-Regular, Aleo">C </text><rect x="43.27" y="33.68" width="8.79" height="18.77" style="fill:#fff"/><rect x="61.4" y="26.76" width="8.79" height="25.69" style="fill:#fff"/><rect x="79.54" y="40.6" width="8.79" height="11.85" style="fill:#fff"/><polygon points="31.95 52 31.95 19.28 31.05 19.28 31.05 19.39 26.73 19.39 26.73 20.28 31.05 20.28 31.05 26.31 26.73 26.31 26.73 27.2 31.05 27.2 31.05 33.23 26.73 33.23 26.73 34.13 31.05 34.13 31.05 40.15 26.73 40.15 26.73 41.05 31.05 41.05 31.05 47.07 26.73 47.07 26.73 47.97 31.05 47.97 31.05 52.9 100.92 52.9 100.92 52 31.95 52" style="fill:#fff"/></g></svg>