<svg xmlns="http://www.w3.org/2000/svg" viewBox="0 0 171 40"><defs><style>.cls-1{fill:#223555;}.cls-2{font-size:16px;fill:#fff;font-family:GothamRounded-Book, Gotham Rounded;}.cls-3{letter-spacing:-0.01em;}.cls-4{letter-spacing:-0.02em;}.cls-5{fill:#40a3db;}</style></defs><title>BotonRegistresuEstablecimientocontexto</title><g id="TEXTOS"><path class="cls-1" d="M156.2,33H27.53c2.35-1.22,2.35-4.86,2.35-4.86,1.18,0,2.35-3.65,1.18-4.87,0,0,8.23,0,8.23-6.08,0-2.33-2.35-3.64-2.35-3.64H156.2a9,9,0,0,1,8.8,9.09V23.9A9,9,0,0,1,156.2,33Z"/><text class="cls-2" transform="translate(45.99 27.41)"><tspan class="cls-3">R</tspan><tspan x="11.41" y="0">egi</tspan><tspan class="cls-3" x="35.71" y="0">s</tspan><tspan x="43.52" y="0">t</tspan><tspan class="cls-4" x="49.98" y="0">r</tspan><tspan x="56.11" y="0">e aquí </tspan></text><path class="cls-5" d="M35.71,14.79a4.16,4.16,0,0,0-3.05-1.29H26.33a6.23,6.23,0,0,0,.38-2.17,3.92,3.92,0,0,0-1.38-3.2A5.37,5.37,0,0,0,21.83,7a2.32,2.32,0,0,0-1.17.3,2.84,2.84,0,0,0-.94.83A11.08,11.08,0,0,0,19,9.2c-.19.35-.4.76-.63,1.22a11.08,11.08,0,0,1-.56,1.05,17,17,0,0,1-1.69,2.18,2.63,2.63,0,0,1-.24.29,4.8,4.8,0,0,1-.32.36l-.34.37c-.16.16-.29.28-.41.38l-.38.3a1.57,1.57,0,0,1-.4.24,1,1,0,0,1-.36.08H8.83a2.15,2.15,0,0,0-2.16,2.16V28.67a2.15,2.15,0,0,0,2.16,2.16h4.88a14.33,14.33,0,0,1,3.77,1A16.37,16.37,0,0,0,22.93,33a5.38,5.38,0,0,0,3.84-1.36,4.81,4.81,0,0,0,1.44-3.72,4.74,4.74,0,0,0,1-3,5.84,5.84,0,0,0-.05-.73,4.49,4.49,0,0,0,.62-2h2.86a4.15,4.15,0,0,0,3.06-1.29A4.21,4.21,0,0,0,37,17.82a4.12,4.12,0,0,0-1.29-3Zm-25,13.55a1.09,1.09,0,0,1-1.85-.76,1.09,1.09,0,0,1,2.17,0,1,1,0,0,1-.32.76Zm23.51-9a2.09,2.09,0,0,1-1.53.64h-5.6a2.22,2.22,0,0,1,.42.8,2.89,2.89,0,0,1,.17.94,2.68,2.68,0,0,1-.89,2,2.37,2.37,0,0,1,.3,1.17,3,3,0,0,1-.29,1.24,1.91,1.91,0,0,1-.81.89,5.43,5.43,0,0,1,.09,1q0,2.82-3.2,2.82a9.92,9.92,0,0,1-3-.54l-3.28-1.08a9,9,0,0,0-2.82-.54h-.54V17.83h.54a3.73,3.73,0,0,0,2.37-1,19.39,19.39,0,0,0,1.71-1.8,18.77,18.77,0,0,0,1.89-2.45c.15-.24.36-.6.63-1.1.74-1.57,1.25-2.35,1.52-2.35a3.46,3.46,0,0,1,2,.51,1.87,1.87,0,0,1,.75,1.65,4.35,4.35,0,0,1-.25,1.43,5.14,5.14,0,0,1-.56,1.15,8,8,0,0,0-.56.94,1.8,1.8,0,0,0-.25.82h9.74a2.24,2.24,0,0,1,2.17,2.16,2.09,2.09,0,0,1-.64,1.53Zm0,0"/></g></svg>