<?xml version="1.0" encoding="utf-8"?>
<!-- Generator: Adobe Illustrator 21.0.0, SVG Export Plug-In . SVG Version: 6.00 Build 0)  -->
<svg version="1.1" id="Capa_1" xmlns="http://www.w3.org/2000/svg" xmlns:xlink="http://www.w3.org/1999/xlink" x="0px" y="0px"
	 viewBox="0 0 79 58" style="enable-background:new 0 0 79 58;" xml:space="preserve">
<style type="text/css">
	.st0{fill:#89B450;}
	.st1{fill:none;}
	.st2{fill:#003E66;}
	.st3{font-family:'GothamRounded-Book';}
	.st4{font-size:9.3284px;}
	.st5{fill:#F1E321;}
	.st6{fill:#FFFFFF;}
	.st7{clip-path:url(#SVGID_2_);}
	.st8{font-family:'LucidaSans';}
	.st9{font-size:2.6488px;}
	.st10{font-family:'AtlanticCruise';}
	.st11{font-size:7.0227px;}
	.st12{clip-path:url(#SVGID_2_);fill:#FFFFFF;}
	.st13{clip-path:url(#SVGID_2_);fill:#6A2F83;}
	.st14{clip-path:url(#SVGID_2_);fill:#E01D26;}
	.st15{clip-path:url(#SVGID_2_);fill:#E05D16;}
	.st16{clip-path:url(#SVGID_2_);fill:#E7DE00;}
	.st17{clip-path:url(#SVGID_2_);fill:#00963E;}
	.st18{clip-path:url(#SVGID_2_);fill:#00A2D8;}
	.st19{clip-path:url(#SVGID_4_);fill:#FFFFFF;}
	.st20{clip-path:url(#SVGID_4_);fill:#6A2F83;}
	.st21{clip-path:url(#SVGID_4_);fill:#E01D26;}
	.st22{clip-path:url(#SVGID_4_);fill:#E05D16;}
	.st23{clip-path:url(#SVGID_4_);fill:#E7DE00;}
	.st24{clip-path:url(#SVGID_4_);fill:#00963E;}
	.st25{clip-path:url(#SVGID_4_);fill:#00A2D8;}
</style>
<rect x="-0.1" y="-0.5" class="st0" width="79.3" height="58.8"/>
<rect x="32.3" y="-29.8" transform="matrix(4.591174e-03 -1 1 4.591174e-03 28.585 50.184)" class="st1" width="14.5" height="81.2"/>
<text transform="matrix(1 0 0 1 4.965 10.167)" class="st2 st3 st4">Calidad del aire </text>
<g>
	<defs>
		<rect id="SVGID_1_" x="6.2" y="14.4" width="66.6" height="43.8"/>
	</defs>
	<clipPath id="SVGID_2_">
		<use xlink:href="#SVGID_1_"  style="overflow:visible;"/>
	</clipPath>
	<g class="st7">
		<text transform="matrix(1.1931 0 0 1 8.8972 55.21)" class="st6 st8 st9">INDICE BOGOTANO DE CALIDAD DEL AIRE</text>
	</g>
	<g class="st7">
		<text transform="matrix(1 0 0 1 8.5305 57.1523)" class="st6 st10 st11">´</text>
	</g>
	<path class="st12" d="M43.7,41.6c-0.5,0.1-0.9,0.1-1.4,0.1c-1.7,0.1-3.3,0.2-4.9,0.1l0.3,3.1l3.3,0.8v0.4c0.3,0,0.5,0,0.5,0
		l0.1-0.7l-0.6-0.1l0.6,0c0,0,0-0.4,0.2-0.4c0.2,0,0.3,0.4,0.3,0.4h0.6L42,45.5l0.1,0.7c0,0-0.8,0.1,0.6,0.2c0.2,0,0.5,0.1,0.8,0.2
		c0.1-0.2,0.1-0.5,0.1-0.9C43.9,43.1,43.6,41.6,43.7,41.6L43.7,41.6z"/>
	<path class="st12" d="M59.6,44.9c-2.7,0.3-7.4,1.8-10.7,1.8v1.1l1-1l1.4,0.5l0.5,2.2c0.7,0,0.9-0.5,2.5-0.2c6-1.7,12.3-2.2,14.5,1
		C67.6,46.1,63.6,44.4,59.6,44.9"/>
	<path class="st12" d="M28.3,23.4c-2.5,0-5,2.3-5,5.2c0,2.9,2.3,5.1,5.4,5.1c3.1,0,5-3,5-5.1C33.7,25.8,31.4,23.4,28.3,23.4"/>
	<path class="st12" d="M18.4,26.2c0.3-0.3,0.4-0.6,0.4-1.1c0-0.5-0.2-0.9-0.6-1.2c-0.4-0.3-0.9-0.3-0.9-0.3v3.2
		C17.3,26.8,18,26.7,18.4,26.2"/>
	<path class="st12" d="M18.9,28.7c-0.5-0.5-1.6-0.5-1.6-0.5v5.6c0,0,1.3-0.1,2-0.9c0.6-0.7,0.8-1.7,0.7-2.4
		C19.8,29.7,19.4,29.1,18.9,28.7"/>
	<polygon class="st12" points="45.1,31.9 47.6,31.9 46.4,26.9 	"/>
	<path class="st12" d="M65.5,36c5.2-6.2-7-8.4-9.7-8.4c0.5-2.5-1.5-4-3.5-3c1-15.4-23.8-11.2-28.6-1.2c0.3-1.6-1.9-2.1-2.5-0.7
		c-0.7-3.2-4.5-4-7.2-3.5C2.9,21.3,3.7,37.5,15.6,37.7c-1.6,3,2.2,5.8,5.2,4.5c-2,0.9-2.3,2.4-1.8,3.9c0.7-0.4,2-0.9,2.5-1.3
		c0.6-0.4,1.2-0.8,1.2-0.8v-0.9l0.6-0.1l0.1-0.9v-0.3l0.1-0.2l0.1,0.2v0.2l0.1,0.5l0.1-0.3l0.2,0l0.4-0.3l0.4,0.3l0.2-0.1v0.7l0.8,0
		c0,0,0,0.6,0,0.6c0,0,0.2,0.1,0.4,0.3v-0.3h4.5v1.8c0.2,0,0.4,0,0.5,0c0.5,0,0.9,0.2,1.3,0.3v-4.3c-6.8-1-11.8-3.2-11.8-4.1
		c3.2,1.5,7.5,2.5,11.8,3v-4.8l3-2.2l1.2,1.5l0.5,5.8c3.1,0.1,5.9-0.1,8-0.5c7.4-1.4,10-3.2,17-2.5c5.1,0.5,9.5,6,9.8,9.2
		C72.6,42.8,69.2,35.8,65.5,36 M13.9,35.3h-1.5V22.1l1.5-0.1V35.3z M20.7,33.4c-0.4,0.7-1.5,1.4-2.1,1.7c-0.7,0.2-1.9,0.2-1.9,0.2
		l-1,0V22h1.3c0,0,0.4,0,0.9,0.2c0.6,0.2,1.6,0.7,2,1.6c0.6,1.3,0.2,2.2,0,2.7c-0.3,0.5-0.5,0.7-0.5,0.7s0.6,0.2,1.1,1
		c0.4,0.6,0.8,1.1,0.9,2.3C21.6,31.7,21.3,32.5,20.7,33.4 M28.5,35.4c-3.7,0-6.7-3-6.7-6.7c0-3.7,3-6.7,6.7-6.7s6.7,3,6.7,6.7
		C35.2,32.3,32.2,35.4,28.5,35.4 M48.5,35.3L48,33.5l-3.3,0l-0.5,1.8l-1.4,0c-0.1,0.1-0.2,0.1-0.5,0.1c-3.7,0-6.7-3-6.7-6.7
		c0-3.7,3-6.7,6.7-6.7c0.2,0,0.5,0,0.6,0.2l0,1.6c-0.1-0.1-0.3-0.3-0.3-0.3s-0.2,0-0.3,0c-2.7,0.1-5.2,2.3-5.2,5.2
		c0,2.9,2.3,5.2,5.4,5.2c0.1,0,0.2,0,0.4,0l0,0.8L46,22.1h0.8l3.3,13.2H48.5z"/>
	<path class="st12" d="M46.5,41.1l1.4,2.4h1v2.7c3.7-0.1,8.8-2.3,12.5-2.1c2.6,0.2,5.9,0.8,9.4,4.8C67.3,35.4,56.6,39.3,46.5,41.1"
		/>
	<path class="st12" d="M42.9,34.6l-0.2,0.7l0.1,0c0,0,0,0,0-0.1L42.9,34.6z"/>
	<rect x="9.1" y="47.1" class="st13" width="1.6" height="3.7"/>
	<rect x="9.1" y="42.3" class="st14" width="1.6" height="3.6"/>
	<rect x="9.1" y="37.1" class="st15" width="1.6" height="3.6"/>
	<rect x="9.1" y="32.3" class="st16" width="1.6" height="3.2"/>
	<rect x="9.1" y="27.3" class="st17" width="1.6" height="3.8"/>
	<rect x="9.1" y="21.9" class="st18" width="1.6" height="3.7"/>
</g>
</svg>
