<svg xmlns="http://www.w3.org/2000/svg" xmlns:xlink="http://www.w3.org/1999/xlink" viewBox="0 0 85 63"><defs><style>.cls-1{fill:none;}.cls-2{fill:#8db850;}.cls-3{font-size:10px;fill:#003e66;font-family:GothamRounded-Book, Gotham Rounded;letter-spacing:-0.02em;}.cls-4{letter-spacing:-0.04em;}.cls-5{clip-path:url(#clip-path);}.cls-6{font-size:2.84px;font-family:LucidaSans, Lucida Sans;}.cls-6,.cls-7,.cls-8{fill:#fff;}.cls-7{font-size:7.53px;font-family:AtlanticCruise, Atlantic Cruise;}.cls-9{fill:#6a2f87;}.cls-10{fill:#e41d26;}.cls-11{fill:#e45d16;}.cls-12{fill:#ebe200;}.cls-13{fill:#009a3e;}.cls-14{fill:#00a6dc;}</style><clipPath id="clip-path"><rect class="cls-1" x="7.32" y="16" width="71.44" height="47"/></clipPath></defs><title>Mesa de trabajo 106</title><g id="Menu"><rect class="cls-2" width="85" height="63"/><text class="cls-3" transform="translate(4.63 11.43)">Calidad del ai<tspan class="cls-4" x="64.31" y="0">r</tspan><tspan x="67.94" y="0">e </tspan></text><g class="cls-5"><text class="cls-6" transform="translate(10.24 59.72) scale(1.19 1)">INDICE BOGOTANO DE CALIDAD DEL AIRE</text><text class="cls-7" transform="translate(9.84 61.8)">´</text><path class="cls-8" d="M47.58,45.09c-.5.06-1,.12-1.49.16a44.75,44.75,0,0,1-5.28.12l.29,3.32,3.49.88V50l.51,0,.1-.7-.64-.09.65-.05s0-.41.22-.42.28.44.28.44h.59l-.53.18.1.72s-.89.11.63.21a3.85,3.85,0,0,1,.82.19c.06-.27.11-.58.16-1a16.23,16.23,0,0,0,0-4.33Z"/><path class="cls-8" d="M64.59,48.7c-2.88.37-8,2-11.49,1.91v1.18l1.06-1,1.52.52.59,2.38A5.67,5.67,0,0,1,59,53.41c6.42-1.78,13.13-2.38,15.52,1.08-1.29-4.54-5.61-6.34-9.88-5.79"/><path class="cls-8" d="M31.06,25.67a5.63,5.63,0,0,0-5.33,5.58,5.53,5.53,0,0,0,5.74,5.52c3.29,0,5.37-3.17,5.37-5.5a5.63,5.63,0,0,0-5.78-5.6"/><path class="cls-8" d="M20.4,28.63a1.4,1.4,0,0,0,.38-1.13,1.76,1.76,0,0,0-.61-1.3,1.51,1.51,0,0,0-1-.37v3.4a2.09,2.09,0,0,0,1.2-.6"/><path class="cls-8" d="M20.91,31.25a3.36,3.36,0,0,0-1.71-.56v6a3.43,3.43,0,0,0,2.17-1,3.33,3.33,0,0,0,.72-2.59,3.4,3.4,0,0,0-1.18-1.89"/><polygon class="cls-8" points="49.06 34.77 51.76 34.77 50.44 29.41 49.06 34.77"/><path class="cls-8" d="M70.93,39.13c5.59-6.66-7.45-9.05-10.38-9.05.53-2.67-1.6-4.26-3.73-3.2,1.07-16.5-25.55-12-30.61-1.33a1.4,1.4,0,0,0-2.66-.8c-.8-3.46-4.79-4.26-7.72-3.72-12,2.39-11.18,19.69,1.6,20-1.73,3.24,2.35,6.23,5.59,4.79-2.14,1-2.52,2.6-2,4.19.75-.4,2.11-1,2.7-1.34s1.3-.91,1.3-.91v-.93l.6-.09.1-1v-.29l.16-.21.14.23v.24l.07.56.11-.29.25.06.42-.28.45.28.22-.07v.71l.82,0s0,.61,0,.61l.41.32v-.34h4.86v1.92l.54,0a4.58,4.58,0,0,1,1.44.34V44.91C28.29,43.87,23,41.44,23,40.52A43.62,43.62,0,0,0,35.63,43.7V38.61l3.19-2.4,1.33,1.61.54,6.27a40.32,40.32,0,0,0,8.57-.5c7.88-1.54,10.76-3.43,18.23-2.73,5.45.51,10.23,6.39,10.47,9.84.6-4.25-3-11.84-7-11.57m-55.31-.74H14V24.24l1.65-.07Zm7.29-2.09a5.37,5.37,0,0,1-2.26,1.78,7.87,7.87,0,0,1-2.07.24h-1V24.17H19a4.09,4.09,0,0,1,1,.2,3.46,3.46,0,0,1,2.12,1.73,3.32,3.32,0,0,1,0,2.86,2.52,2.52,0,0,1-.53.79,3.17,3.17,0,0,1,1.18,1,4.46,4.46,0,0,1,1,2.47,4.42,4.42,0,0,1-.81,3m8.34,2.15a7.18,7.18,0,1,1,7.15-7.17,7.23,7.23,0,0,1-7.15,7.17m21.42-.11-.48-1.93H48.68l-.5,1.93-1.53,0c-.08.11-.26.11-.58.11a7.18,7.18,0,1,1,0-14.36c.23,0,.56,0,.62.22l0,1.72a3.86,3.86,0,0,0-.3-.3H46a5.66,5.66,0,0,0-5.53,5.55,5.58,5.58,0,0,0,5.77,5.54,2.67,2.67,0,0,0,.4,0v.81L50,24.18h.82l3.54,14.16Z"/><path class="cls-8" d="M50.52,44.64,52,47.23H53.1v2.86c4-.14,9.46-2.5,13.37-2.24,2.82.18,6.3.85,10.11,5.09-3.77-14.5-15.25-10.23-26.06-8.3"/><path class="cls-8" d="M46.68,37.6l-.18.72h.15a.2.2,0,0,0,0-.08Z"/><rect class="cls-9" x="10.47" y="51" width="1.69" height="3.94"/><rect class="cls-10" x="10.47" y="45.86" width="1.69" height="3.86"/><rect class="cls-11" x="10.47" y="40.27" width="1.69" height="3.86"/><rect class="cls-12" x="10.47" y="35.18" width="1.69" height="3.41"/><rect class="cls-13" x="10.47" y="29.75" width="1.69" height="4.03"/><rect class="cls-14" x="10.47" y="23.97" width="1.69" height="3.94"/></g></g></svg>