<svg xmlns="http://www.w3.org/2000/svg" viewBox="0 0 85 63"><defs><style>.cls-1{fill:#8db850;}.cls-2{font-size:10px;fill:#003e66;font-family:GothamRounded-Book, Gotham Rounded;letter-spacing:-0.02em;}.cls-3{fill:#fff;}.cls-4{fill:#f5e721;}</style></defs><title>Mesa de trabajo 108</title><g id="Menu"><rect class="cls-1" width="85" height="63"/><text class="cls-2" transform="translate(13.13 11.45)">Clima actual</text><g id="_5" data-name="5"><path class="cls-3" d="M48.54,46.12a.63.63,0,0,0,0-1.25H29.43a6.71,6.71,0,1,1,0-13.41h2.31a.6.6,0,0,0,.53-.32.57.57,0,0,0,.12-.18,10.17,10.17,0,0,1,.75-1.47.62.62,0,0,0-1.06-.65,11.92,11.92,0,0,0-.72,1.37H29.43a8,8,0,0,0,0,15.91Z"/><path class="cls-3" d="M50.31,44.87a.63.63,0,0,0,0,1.25h.21a.63.63,0,0,0,0-1.25Z"/><path class="cls-3" d="M53.87,30.21h-2.1a11.63,11.63,0,0,0-10.12-6.72,11.26,11.26,0,0,0-8.48,3.86.62.62,0,0,0,.94.82,10,10,0,0,1,7.54-3.43,10.4,10.4,0,0,1,9.16,6.35.62.62,0,0,0,.57.37h2.49a6.71,6.71,0,0,1,0,13.41H52.38a.63.63,0,1,0,0,1.25h1.49a8,8,0,0,0,0-15.91Z"/><path class="cls-3" d="M52,33H50a10.85,10.85,0,0,0-5.42-5.29A.47.47,0,0,0,44,28a.46.46,0,0,0,.25.61,10,10,0,0,1,5.07,5.09.46.46,0,0,0,.42.28H52a6.16,6.16,0,0,1,5.5,3.46.48.48,0,0,0,.62.22.48.48,0,0,0,.22-.63A7.12,7.12,0,0,0,52,33Z"/><path class="cls-3" d="M57.9,38.4a6.36,6.36,0,0,1,.23,1.44.47.47,0,0,0,.47.45h0a.47.47,0,0,0,.45-.49,7.18,7.18,0,0,0-.26-1.66.48.48,0,0,0-.58-.32A.47.47,0,0,0,57.9,38.4Z"/><path class="cls-4" d="M48.21,25.19a.62.62,0,0,0,.86-.18,4.72,4.72,0,0,1,8.66,2.6,3.14,3.14,0,0,1-.39,1.9.62.62,0,0,0,.23.85.6.6,0,0,0,.31.08.61.61,0,0,0,.54-.31A4.37,4.37,0,0,0,59,27.61,6,6,0,0,0,48,24.33.62.62,0,0,0,48.21,25.19Z"/><path class="cls-4" d="M53,21.06a.63.63,0,0,0,.63-.62v-4.1a.63.63,0,0,0-1.25,0v4.1A.62.62,0,0,0,53,21.06Z"/><path class="cls-4" d="M64.38,26.93h-4.1a.62.62,0,1,0,0,1.24h4.1a.62.62,0,1,0,0-1.24Z"/><path class="cls-4" d="M47,22.19a.46.46,0,0,0,.66,0,.45.45,0,0,0,0-.66l-1.84-1.85a.48.48,0,0,0-.67,0,.47.47,0,0,0,0,.66Z"/><path class="cls-4" d="M58.61,22.33a.47.47,0,0,0,.33-.14l1.85-1.85a.47.47,0,1,0-.66-.66l-1.85,1.85a.47.47,0,0,0,.33.8Z"/><path class="cls-3" d="M30.78,57.48a.63.63,0,0,0-.87.21l-1.07,1.75a.62.62,0,0,0,.21.86.56.56,0,0,0,.33.1.63.63,0,0,0,.53-.3L31,58.35A.63.63,0,0,0,30.78,57.48Z"/><path class="cls-3" d="M36.59,48a.62.62,0,0,0-.86.21L31,56a.64.64,0,0,0,.2.87.68.68,0,0,0,.33.09.65.65,0,0,0,.54-.3l4.75-7.76A.62.62,0,0,0,36.59,48Z"/><path class="cls-3" d="M42.39,53a.63.63,0,0,0-.87.21l-3.85,6.28a.62.62,0,0,0,.21.86.56.56,0,0,0,.33.1.63.63,0,0,0,.53-.3l3.85-6.29A.63.63,0,0,0,42.39,53Z"/><path class="cls-3" d="M43.49,51.15a.63.63,0,0,0-.87.21l-.14.23a.62.62,0,0,0,.21.86.58.58,0,0,0,.33.1.62.62,0,0,0,.53-.3L43.7,52A.62.62,0,0,0,43.49,51.15Z"/><path class="cls-3" d="M45.43,48a.63.63,0,0,0-.87.21l-1,1.6a.63.63,0,0,0,.2.87.68.68,0,0,0,.33.09.62.62,0,0,0,.54-.3l1-1.61A.63.63,0,0,0,45.43,48Z"/><path class="cls-3" d="M49,56.61a.64.64,0,0,0-.87.21l-1.6,2.62a.62.62,0,0,0,.21.86.56.56,0,0,0,.33.1.62.62,0,0,0,.53-.3l1.61-2.62A.63.63,0,0,0,49,56.61Z"/><path class="cls-3" d="M54.26,48a.63.63,0,0,0-.87.21l-4.46,7.27a.63.63,0,0,0,.21.87.66.66,0,0,0,.33.09.62.62,0,0,0,.53-.3l4.46-7.28A.62.62,0,0,0,54.26,48Z"/></g></g></svg>