<?xml version="1.0" encoding="utf-8"?>
<!-- Generator: Adobe Illustrator 21.0.0, SVG Export Plug-In . SVG Version: 6.00 Build 0)  -->
<svg version="1.1" id="Capa_1" xmlns="http://www.w3.org/2000/svg" xmlns:xlink="http://www.w3.org/1999/xlink" x="0px" y="0px"
	 viewBox="0 0 79 58" style="enable-background:new 0 0 79 58;" xml:space="preserve">
<style type="text/css">
	.st0{fill:#89B450;}
	.st1{fill:#F1E321;}
	.st2{fill:#FFFFFF;}
	.st3{fill:none;}
	.st4{fill:#003E66;}
	.st5{font-family:'GothamRounded-Book';}
	.st6{font-size:9.3284px;}
	.st7{clip-path:url(#SVGID_2_);fill:#FFFFFF;}
	.st8{clip-path:url(#SVGID_2_);fill:#6A2F83;}
	.st9{clip-path:url(#SVGID_2_);fill:#E01D26;}
	.st10{clip-path:url(#SVGID_2_);fill:#E05D16;}
	.st11{clip-path:url(#SVGID_2_);fill:#E7DE00;}
	.st12{clip-path:url(#SVGID_2_);fill:#00963E;}
	.st13{clip-path:url(#SVGID_2_);fill:#00A2D8;}
	.st14{clip-path:url(#SVGID_4_);fill:#FFFFFF;}
	.st15{clip-path:url(#SVGID_4_);fill:#6A2F83;}
	.st16{clip-path:url(#SVGID_4_);fill:#E01D26;}
	.st17{clip-path:url(#SVGID_4_);fill:#E05D16;}
	.st18{clip-path:url(#SVGID_4_);fill:#E7DE00;}
	.st19{clip-path:url(#SVGID_4_);fill:#00963E;}
	.st20{clip-path:url(#SVGID_4_);fill:#00A2D8;}
</style>
<g>
	<rect x="-0.2" y="-0.4" class="st0" width="79.3" height="58.8"/>
	<g>
		
			<rect x="32.2" y="-28.7" transform="matrix(4.591192e-03 -1 1 4.591192e-03 28.3637 50.4053)" class="st3" width="14.7" height="79.3"/>
		<text transform="matrix(1 0 0 1 12.0653 10.2934)" class="st4 st5 st6">Clima actual</text>
	</g>
	<g id="_x35__19_">
		<g>
			<path class="st2" d="M45.1,42.6c0.3,0,0.6-0.3,0.6-0.6c0-0.3-0.3-0.6-0.6-0.6H27.3c-3.5,0-6.3-2.8-6.3-6.3c0-3.5,2.8-6.3,6.3-6.3
				h2.2c0.2,0,0.4-0.1,0.5-0.3c0,0,0.1-0.1,0.1-0.2c0.2-0.5,0.4-0.9,0.7-1.4c0.2-0.3,0.1-0.6-0.2-0.8c-0.3-0.2-0.6-0.1-0.8,0.2
				c-0.3,0.4-0.5,0.8-0.7,1.3h-1.8c-4.1,0-7.4,3.3-7.4,7.4c0,4.1,3.3,7.4,7.4,7.4H45.1z"/>
			<path class="st2" d="M46.8,41.5c-0.3,0-0.6,0.3-0.6,0.6c0,0.3,0.3,0.6,0.6,0.6h0.2c0.3,0,0.6-0.3,0.6-0.6c0-0.3-0.3-0.6-0.6-0.6
				H46.8z"/>
			<path class="st2" d="M50.1,27.8h-2c-1.8-3.8-5.6-6.3-9.4-6.3c-3,0-5.9,1.3-7.9,3.6c-0.2,0.2-0.2,0.6,0.1,0.8
				c0.2,0.2,0.6,0.2,0.8-0.1c1.8-2,4.3-3.2,7-3.2c3.5,0,7,2.4,8.5,5.9c0.1,0.2,0.3,0.3,0.5,0.3c0,0,0,0,0,0c0,0,0,0,0,0h2.2
				c3.5,0,6.3,2.8,6.3,6.3c0,3.5-2.8,6.3-6.3,6.3h-1.4c-0.3,0-0.6,0.3-0.6,0.6c0,0.3,0.3,0.6,0.6,0.6h1.4c4.1,0,7.4-3.3,7.4-7.4
				C57.5,31.1,54.2,27.8,50.1,27.8z"/>
			<path class="st2" d="M48.4,30.4h-1.9c-1.1-2.2-2.9-4-5.1-4.9c-0.2-0.1-0.5,0-0.6,0.2c-0.1,0.2,0,0.5,0.2,0.6
				c2,0.9,3.8,2.6,4.7,4.7c0.1,0.2,0.2,0.3,0.4,0.3c0,0,0,0,0.1,0c0,0,0,0,0.1,0h2c2.2,0,4.2,1.3,5.1,3.2c0.1,0.2,0.2,0.2,0.4,0.2
				c0.1,0,0.1,0,0.2,0c0.2-0.1,0.3-0.4,0.2-0.6C53.2,31.9,50.9,30.4,48.4,30.4z"/>
			<path class="st2" d="M53.8,35.4c0.1,0.4,0.2,0.9,0.2,1.3c0,0.2,0.2,0.4,0.4,0.4c0,0,0,0,0,0c0.2,0,0.4-0.2,0.4-0.5
				c0-0.5-0.1-1-0.2-1.5c-0.1-0.2-0.3-0.4-0.5-0.3C53.9,35,53.8,35.2,53.8,35.4z"/>
			<path class="st1" d="M44.8,23.1c0.3,0.2,0.6,0.1,0.8-0.2c0.8-1.2,2.2-2,3.7-2c2.4,0,4.4,2,4.4,4.4c0,0.8,0,1.2-0.4,1.8
				c-0.2,0.3-0.1,0.6,0.2,0.8c0.1,0.1,0.2,0.1,0.3,0.1c0.2,0,0.4-0.1,0.5-0.3c0.5-0.9,0.5-1.5,0.5-2.3c0-3.1-2.5-5.6-5.6-5.6
				c-1.9,0-3.6,0.9-4.6,2.5C44.4,22.6,44.5,22.9,44.8,23.1z"/>
			<path class="st1" d="M49.3,19.3c0.3,0,0.6-0.3,0.6-0.6v-3.8c0-0.3-0.3-0.6-0.6-0.6c-0.3,0-0.6,0.3-0.6,0.6v3.8
				C48.7,19,49,19.3,49.3,19.3z"/>
			<path class="st1" d="M59.9,24.7H56c-0.3,0-0.6,0.3-0.6,0.6c0,0.3,0.3,0.6,0.6,0.6h3.8c0.3,0,0.6-0.3,0.6-0.6
				C60.5,25,60.2,24.7,59.9,24.7z"/>
			<path class="st1" d="M43.7,20.3c0.1,0.1,0.2,0.1,0.3,0.1c0.1,0,0.2,0,0.3-0.1c0.2-0.2,0.2-0.4,0-0.6L42.5,18
				c-0.2-0.2-0.4-0.2-0.6,0c-0.2,0.2-0.2,0.4,0,0.6L43.7,20.3z"/>
			<path class="st1" d="M54.5,20.4c0.1,0,0.2,0,0.3-0.1l1.7-1.7c0.2-0.2,0.2-0.4,0-0.6c-0.2-0.2-0.4-0.2-0.6,0l-1.7,1.7
				c-0.2,0.2-0.2,0.4,0,0.6C54.3,20.4,54.4,20.4,54.5,20.4z"/>
			<path class="st2" d="M28.5,53.2c-0.3-0.2-0.6-0.1-0.8,0.2l-1,1.6c-0.2,0.3-0.1,0.6,0.2,0.8c0.1,0.1,0.2,0.1,0.3,0.1
				c0.2,0,0.4-0.1,0.5-0.3l1-1.6C28.9,53.8,28.8,53.4,28.5,53.2z"/>
			<path class="st2" d="M34,44.4c-0.3-0.2-0.6-0.1-0.8,0.2l-4.4,7.2c-0.2,0.3-0.1,0.6,0.2,0.8c0.1,0.1,0.2,0.1,0.3,0.1
				c0.2,0,0.4-0.1,0.5-0.3l4.4-7.2C34.3,44.9,34.2,44.6,34,44.4z"/>
			<path class="st2" d="M39.4,49c-0.3-0.2-0.6-0.1-0.8,0.2L35,55.1c-0.2,0.3-0.1,0.6,0.2,0.8c0.1,0.1,0.2,0.1,0.3,0.1
				c0.2,0,0.4-0.1,0.5-0.3l3.6-5.9C39.7,49.5,39.6,49.2,39.4,49z"/>
			<path class="st2" d="M40.4,47.3c-0.3-0.2-0.6-0.1-0.8,0.2l-0.1,0.2c-0.2,0.3-0.1,0.6,0.2,0.8c0.1,0.1,0.2,0.1,0.3,0.1
				c0.2,0,0.4-0.1,0.5-0.3l0.1-0.2C40.8,47.9,40.7,47.5,40.4,47.3z"/>
			<path class="st2" d="M42.2,44.4c-0.3-0.2-0.6-0.1-0.8,0.2l-0.9,1.5c-0.2,0.3-0.1,0.6,0.2,0.8c0.1,0.1,0.2,0.1,0.3,0.1
				c0.2,0,0.4-0.1,0.5-0.3l0.9-1.5C42.6,44.9,42.5,44.6,42.2,44.4z"/>
			<path class="st2" d="M45.5,52.4c-0.3-0.2-0.6-0.1-0.8,0.2l-1.5,2.4c-0.2,0.3-0.1,0.6,0.2,0.8c0.1,0.1,0.2,0.1,0.3,0.1
				c0.2,0,0.4-0.1,0.5-0.3l1.5-2.4C45.9,53,45.8,52.6,45.5,52.4z"/>
			<path class="st2" d="M50.4,44.4c-0.3-0.2-0.6-0.1-0.8,0.2l-4.2,6.8c-0.2,0.3-0.1,0.6,0.2,0.8c0.1,0.1,0.2,0.1,0.3,0.1
				c0.2,0,0.4-0.1,0.5-0.3l4.2-6.8C50.8,44.9,50.7,44.6,50.4,44.4z"/>
		</g>
	</g>
</g>
</svg>
