<svg xmlns="http://www.w3.org/2000/svg" viewBox="0 0 50 37"><defs><style>.cls-1{fill:#0095d9;}</style></defs><title>IconoComentar</title><g id="TEXTOS"><path class="cls-1" d="M28.51,23.52A11,11,0,0,0,33,20.22a7,7,0,0,0,0-9.09,11.14,11.14,0,0,0-4.53-3.3,16,16,0,0,0-6.26-1.22A16,16,0,0,0,16,7.83a11.23,11.23,0,0,0-4.53,3.3,7.15,7.15,0,0,0-1.67,4.55,6.94,6.94,0,0,0,1.26,4,10.38,10.38,0,0,0,3.45,3.13c-.12.29-.24.54-.36.78a4.21,4.21,0,0,1-.45.68l-.39.52-.46.52c-.22.22-.35.37-.41.44s0,0-.07.08l-.08.09s0,0-.07.09l-.06.09-.05.09a.23.23,0,0,0,0,.11.37.37,0,0,0,0,.11.49.49,0,0,0,0,.12.66.66,0,0,0,.21.37.56.56,0,0,0,.36.14h0c.59-.08,1.1-.18,1.53-.28a15.16,15.16,0,0,0,4.92-2.27,17.62,17.62,0,0,0,3.11.28,15.77,15.77,0,0,0,6.26-1.21Zm-9.9-1.47-.78.54c-.33.23-.7.46-1.1.69l.62-1.48-1.72-1A8.19,8.19,0,0,1,13,18.47a4.86,4.86,0,0,1-.93-2.79,5,5,0,0,1,1.39-3.38,9.39,9.39,0,0,1,3.74-2.5,14.38,14.38,0,0,1,10.12,0,9.39,9.39,0,0,1,3.74,2.5,5,5,0,0,1,1.39,3.38,5,5,0,0,1-1.39,3.38,9.38,9.38,0,0,1-3.74,2.49,13.83,13.83,0,0,1-5.06.92,14.94,14.94,0,0,1-2.71-.25Zm0,0"/><path class="cls-1" d="M40.25,24.18a6.95,6.95,0,0,0-.07-8A10.6,10.6,0,0,0,36.57,13a9.25,9.25,0,0,1,.4,2.7,9.08,9.08,0,0,1-1.18,4.49,11.9,11.9,0,0,1-3.4,3.75,15.74,15.74,0,0,1-4.67,2.28,18.75,18.75,0,0,1-5.47.8c-.35,0-.87,0-1.56-.07a14.86,14.86,0,0,0,8.36,2.34A17.65,17.65,0,0,0,32.16,29a14.77,14.77,0,0,0,4.92,2.27c.42.1.93.2,1.52.28a.57.57,0,0,0,.39-.12.65.65,0,0,0,.23-.39c0-.07,0-.11,0-.12s0,0,0-.11a.7.7,0,0,0,0-.11l0-.09-.06-.09L39,30.41l-.08-.09-.07-.08-.41-.44c-.21-.23-.37-.4-.46-.52s-.23-.3-.4-.52a4.15,4.15,0,0,1-.44-.68,7.18,7.18,0,0,1-.36-.78,10.46,10.46,0,0,0,3.45-3.12Zm0,0"/></g></svg>