<?xml version="1.0" encoding="utf-8"?>
<!-- Generator: Adobe Illustrator 21.0.0, SVG Export Plug-In . SVG Version: 6.00 Build 0)  -->
<svg version="1.1" id="Capa_1" xmlns="http://www.w3.org/2000/svg" xmlns:xlink="http://www.w3.org/1999/xlink" x="0px" y="0px"
	 viewBox="0 0 79 58" style="enable-background:new 0 0 79 58;" xml:space="preserve">
<style type="text/css">
	.st0{fill:#89B450;}
	.st1{fill:none;}
	.st2{fill:#003E66;}
	.st3{font-family:'GothamRounded-Book';}
	.st4{font-size:9.3284px;}
	.st5{fill:#F1E321;}
	.st6{fill:#FFFFFF;}
	.st7{clip-path:url(#SVGID_2_);fill:#FFFFFF;}
	.st8{clip-path:url(#SVGID_2_);fill:#6A2F83;}
	.st9{clip-path:url(#SVGID_2_);fill:#E01D26;}
	.st10{clip-path:url(#SVGID_2_);fill:#E05D16;}
	.st11{clip-path:url(#SVGID_2_);fill:#E7DE00;}
	.st12{clip-path:url(#SVGID_2_);fill:#00963E;}
	.st13{clip-path:url(#SVGID_2_);fill:#00A2D8;}
	.st14{clip-path:url(#SVGID_4_);fill:#FFFFFF;}
	.st15{clip-path:url(#SVGID_4_);fill:#6A2F83;}
	.st16{clip-path:url(#SVGID_4_);fill:#E01D26;}
	.st17{clip-path:url(#SVGID_4_);fill:#E05D16;}
	.st18{clip-path:url(#SVGID_4_);fill:#E7DE00;}
	.st19{clip-path:url(#SVGID_4_);fill:#00963E;}
	.st20{clip-path:url(#SVGID_4_);fill:#00A2D8;}
</style>
<g>
	<rect x="-0.2" y="-0.4" class="st0" width="79.3" height="58.8"/>
	<g>
		
			<rect x="34.5" y="-31" transform="matrix(4.591126e-03 -1 1 4.591126e-03 30.715 48.0862)" class="st1" width="10" height="79.3"/>
		<text transform="matrix(1 0 0 1 17.8763 10.2939)" class="st2 st3 st4">Índice UV</text>
	</g>
	<g>
		<path class="st5" d="M57.2,45.8L51.7,39c-0.6,2.1-1.7,3.9-3.1,5.4L57.2,45.8z"/>
		<path class="st5" d="M27.9,16.5l1.4,8.7c1.5-1.4,3.4-2.5,5.4-3.1L27.9,16.5z"/>
		<path class="st5" d="M49.3,16.5L42.5,22c2.1,0.6,3.9,1.7,5.4,3.1L49.3,16.5z"/>
		<path class="st5" d="M49.3,53.6L48,45c-1.5,1.4-3.4,2.5-5.4,3.1L49.3,53.6z"/>
		<path class="st5" d="M27.9,53.6l6.8-5.5c-2.1-0.6-3.9-1.7-5.4-3.1L27.9,53.6z"/>
		<path class="st5" d="M20,45.8l8.7-1.4c-1.4-1.5-2.5-3.4-3.1-5.4L20,45.8z"/>
		<path class="st5" d="M25.3,31.9l-8.2,3.1l8.2,3.1c-0.2-1-0.4-2.1-0.4-3.1C25,34,25.1,32.9,25.3,31.9z"/>
		<path class="st5" d="M57.2,24.3l-8.7,1.4c1.4,1.5,2.5,3.4,3.1,5.4L57.2,24.3z"/>
		<path class="st5" d="M35.5,48.3l3.1,8.2l3.1-8.2c-1,0.2-2.1,0.4-3.1,0.4C37.5,48.7,36.5,48.6,35.5,48.3z"/>
		<path class="st5" d="M41.7,21.8l-3.1-8.2l-3.1,8.2c1-0.2,2.1-0.4,3.1-0.4C39.7,21.4,40.7,21.6,41.7,21.8z"/>
		<path class="st5" d="M51.9,38.2l8.2-3.1l-8.2-3.1c0.2,1,0.4,2.1,0.4,3.1C52.3,36.1,52.1,37.2,51.9,38.2z"/>
		<path class="st5" d="M20,24.3l5.5,6.8c0.6-2.1,1.7-3.9,3.1-5.4L20,24.3z"/>
		<path class="st5" d="M38.6,22.5c-7,0-12.6,5.6-12.6,12.6c0,7,5.6,12.6,12.6,12.6S51.2,42,51.2,35.1C51.2,28.1,45.6,22.5,38.6,22.5
			z M38.6,24.9c-5.6,0-10.2,4.6-10.2,10.2c0,0.2-0.2,0.4-0.4,0.4c-0.2,0-0.4-0.2-0.4-0.4c0-6.1,4.9-11,11-11c0.2,0,0.4,0.2,0.4,0.4
			C39,24.7,38.8,24.9,38.6,24.9z"/>
		<path class="st6" d="M52.3,35.1c0-1.1-0.1-2.1-0.4-3.1c-0.1-0.3-0.1-0.5-0.2-0.8c-0.6-2.1-1.7-3.9-3.1-5.4
			c-0.2-0.2-0.4-0.4-0.6-0.6c-1.5-1.4-3.4-2.5-5.4-3.1c-0.3-0.1-0.5-0.1-0.8-0.2c-1-0.2-2.1-0.4-3.1-0.4c-1.1,0-2.1,0.1-3.1,0.4
			c-0.3,0.1-0.5,0.1-0.8,0.2c-2.1,0.6-3.9,1.7-5.4,3.1c-0.2,0.2-0.4,0.4-0.6,0.6c-1.4,1.5-2.5,3.4-3.1,5.4c-0.1,0.3-0.1,0.5-0.2,0.8
			c-0.2,1-0.4,2.1-0.4,3.1c0,1.1,0.1,2.1,0.4,3.1c0.1,0.3,0.1,0.5,0.2,0.8c0.6,2.1,1.7,3.9,3.1,5.4c0.2,0.2,0.4,0.4,0.6,0.6
			c1.5,1.4,3.4,2.5,5.4,3.1c0.3,0.1,0.5,0.1,0.8,0.2c1,0.2,2.1,0.4,3.1,0.4c1.1,0,2.1-0.1,3.1-0.4c0.3-0.1,0.5-0.1,0.8-0.2
			c2.1-0.6,3.9-1.7,5.4-3.1c0.2-0.2,0.4-0.4,0.6-0.6c1.4-1.5,2.5-3.4,3.1-5.4c0.1-0.3,0.1-0.5,0.2-0.8
			C52.1,37.2,52.3,36.1,52.3,35.1z M38.6,47.7c-7,0-12.6-5.6-12.6-12.6c0-7,5.6-12.6,12.6-12.6s12.6,5.6,12.6,12.6
			C51.2,42,45.6,47.7,38.6,47.7z"/>
		<path class="st6" d="M38.6,24.1c-6.1,0-11,4.9-11,11c0,0.2,0.2,0.4,0.4,0.4c0.2,0,0.4-0.2,0.4-0.4c0-5.6,4.6-10.2,10.2-10.2
			c0.2,0,0.4-0.2,0.4-0.4C39,24.2,38.8,24.1,38.6,24.1z"/>
	</g>
</g>
</svg>
