<svg xmlns="http://www.w3.org/2000/svg" viewBox="0 0 85 63"><defs><style>.cls-1{fill:#8db850;}.cls-2{font-size:10px;fill:#003e66;font-family:GothamRounded-Book, Gotham Rounded;letter-spacing:-0.02em;}.cls-3{letter-spacing:-0.04em;}.cls-4{fill:#f5e721;}.cls-5{fill:#fff;}</style></defs><title>Mesa de trabajo 107</title><g id="Menu"><rect class="cls-1" width="85" height="63"/><text class="cls-2" transform="translate(19.43 11.45)">Índi<tspan class="cls-3" x="17.54" y="0">c</tspan><tspan x="22.9" y="0">e UV</tspan></text><path class="cls-4" d="M61.5,49.5l-5.91-7.29A14.67,14.67,0,0,1,52.22,48Z"/><path class="cls-4" d="M30.08,18.08l1.49,9.29A14.59,14.59,0,0,1,37.37,24Z"/><path class="cls-4" d="M53.09,18.08,45.79,24a14.56,14.56,0,0,1,5.81,3.37Z"/><path class="cls-4" d="M53.09,57.92,51.6,48.63A14.56,14.56,0,0,1,45.79,52Z"/><path class="cls-4" d="M30.08,57.92,37.37,52a14.59,14.59,0,0,1-5.8-3.37Z"/><path class="cls-4" d="M21.67,49.5,31,48a14.67,14.67,0,0,1-3.37-5.81Z"/><path class="cls-4" d="M27.36,34.64,18.58,38l8.78,3.36a14.31,14.31,0,0,1,0-6.72Z"/><path class="cls-4" d="M61.5,26.5,52.22,28a14.67,14.67,0,0,1,3.37,5.81Z"/><path class="cls-4" d="M38.22,52.23,41.58,61,45,52.23a14.71,14.71,0,0,1-6.73,0Z"/><path class="cls-4" d="M45,23.77,41.58,15l-3.36,8.77a14.71,14.71,0,0,1,6.73,0Z"/><path class="cls-4" d="M55.81,41.36,64.58,38l-8.77-3.36a14.31,14.31,0,0,1,0,6.72Z"/><path class="cls-4" d="M21.67,26.49l5.91,7.3A14.67,14.67,0,0,1,31,28Z"/><path class="cls-4" d="M41.58,24.5A13.5,13.5,0,1,0,55.08,38,13.5,13.5,0,0,0,41.58,24.5Zm0,2.6A10.91,10.91,0,0,0,30.68,38a.45.45,0,1,1-.9,0,11.82,11.82,0,0,1,11.8-11.8.45.45,0,0,1,0,.9Z"/><path class="cls-5" d="M56.21,38a14.31,14.31,0,0,0-.4-3.36c-.07-.29-.14-.57-.22-.85A14.67,14.67,0,0,0,52.22,28c-.2-.21-.41-.42-.62-.61A14.56,14.56,0,0,0,45.79,24L45,23.77a14.71,14.71,0,0,0-6.73,0l-.85.23a14.59,14.59,0,0,0-5.8,3.37c-.22.19-.42.4-.62.61a14.67,14.67,0,0,0-3.37,5.81c-.08.28-.16.56-.22.85a14.31,14.31,0,0,0,0,6.72c.06.29.14.57.22.85A14.67,14.67,0,0,0,31,48c.2.21.4.42.62.61A14.59,14.59,0,0,0,37.37,52l.85.23a14.71,14.71,0,0,0,6.73,0l.84-.23a14.56,14.56,0,0,0,5.81-3.37c.21-.19.42-.4.62-.61a14.67,14.67,0,0,0,3.37-5.81c.08-.28.15-.56.22-.85A14.31,14.31,0,0,0,56.21,38ZM41.58,51.5A13.5,13.5,0,1,1,55.08,38,13.5,13.5,0,0,1,41.58,51.5Z"/><path class="cls-5" d="M41.58,26.2A11.82,11.82,0,0,0,29.78,38a.45.45,0,1,0,.9,0,10.91,10.91,0,0,1,10.9-10.9.45.45,0,0,0,0-.9Z"/></g></svg>