<svg xmlns="http://www.w3.org/2000/svg" xmlns:xlink="http://www.w3.org/1999/xlink" viewBox="0 0 26 26.01"><defs><style>.cls-1{fill:none;}.cls-2{clip-path:url(#clip-path);}.cls-3{fill:#009de1;}</style><clipPath id="clip-path"><rect class="cls-1" x="-1447" y="79" width="1300" height="357"/></clipPath></defs><title>IconoPoliticaDistrital</title><g id="TEXTOS"><path class="cls-3" d="M25.88,11.29a4.91,4.91,0,0,0,.09-.94A11.54,11.54,0,0,0,24,4L21.24,0,19.92,2a13,13,0,0,0-7.07-2A13.16,13.16,0,0,0,10.27.3,2.78,2.78,0,0,0,9.08.06,2.94,2.94,0,0,0,6.2,2.65a2.3,2.3,0,0,0-.66.25,2,2,0,0,0-1-.27,2.09,2.09,0,0,0-1.91,1.3A1.68,1.68,0,0,0,1.17,5.6a1.65,1.65,0,0,0,.46,1.12A12.93,12.93,0,0,0,0,13.16a13.68,13.68,0,0,0,1.68,6.56v.42c0,.42.38.42.84.42v2.1H1.68v.84H5.45A12.9,12.9,0,0,0,26,12.86,13.83,13.83,0,0,0,25.88,11.29ZM9.09.9A2.1,2.1,0,0,1,9.87,5,1.66,1.66,0,0,0,8.53,3.86,2.1,2.1,0,0,0,7.05,2.65,2.08,2.08,0,0,1,9.09.9ZM2.81,4.74l.41,0,.08-.33a1.25,1.25,0,0,1,1.2-1,1.2,1.2,0,0,1,.79.27L5.56,4l.26-.21a1.29,1.29,0,0,1,.78-.3,1.26,1.26,0,0,1,1.22.94l.09.33.34,0h0a.84.84,0,1,1,0,1.68l-5.45.06a.84.84,0,0,1,0-1.68Zm-.29,15.4c-.42,0-.42-1.26,0-1.26H16.77c.42,0,.42,1.26,0,1.26M2.94,18.47V17.21c0-.23.37-.85.84-.85s.84.62.84.85v1.26Zm.84-4.2v-.42c0-.23,0-.84.84-.84H14.69a.73.73,0,0,1,.83.84v.42H12.36v.42h3.16V16H3.78V14.69h7.68v-.42ZM5,16.79h9.38a1.16,1.16,0,0,0-.08.42v1.26H5V17.21A1.42,1.42,0,0,0,5,16.79Zm9.73,1.68V17.21c0-.23.37-.85.83-.85s.84.62.84.85v1.26Zm1.67,4.15-1.67,0v-2.1h1.67Zm-11.74,0H2.94v-2.1H4.62Zm.41,0v-2.1h9.24v2.1Zm14.38.68v-.75h-.84v.84h.7A12.16,12.16,0,0,1,7,23.57l10.65-.07v-.84h-.84v-2.1c.47,0,.84,0,.91-.47v-.84a.85.85,0,0,0-.85-.83l0-1.26A1.25,1.25,0,0,0,16,16l0-2.17a1.27,1.27,0,0,0-1.28-1.25l-10.06.12A1.26,1.26,0,0,0,3.37,14l0,2.18a1.25,1.25,0,0,0-.82,1.19v1.26a.85.85,0,0,0-.35.08,12.16,12.16,0,0,1,.11-11.5,1.55,1.55,0,0,0,.53.09L8.32,7.2A1.67,1.67,0,0,0,10,5.8,2.92,2.92,0,0,0,11.24,1,14.73,14.73,0,0,1,12.86.85a12.2,12.2,0,0,1,6.61,1.87L18.6,4.05a11.46,11.46,0,0,0-1.85,6.4A4.61,4.61,0,0,0,21,15l.08,7.1A11.2,11.2,0,0,1,19.41,23.34Zm2.4-1.95v-6.3a4.65,4.65,0,0,0,3.35-1.94A12.19,12.19,0,0,1,21.81,21.39Zm0-7.14v-2l.06-.2A4.17,4.17,0,0,1,23.5,9.65l-.42-.42a3.12,3.12,0,0,0-1.26,1.26V4.63H21V9.18a7.79,7.79,0,0,0-1.85-1.95l-.5.67a7,7,0,0,1,2.32,3L21,11v3.25a3.78,3.78,0,0,1-3.36-3.75A10.67,10.67,0,0,1,19.4,4.58l2-3,2,3a10.67,10.67,0,0,1,1.79,5.92A3.78,3.78,0,0,1,21.81,14.25Z"/><path class="cls-3" d="M13.84,5.46a1.68,1.68,0,0,0-1.68,1.68H13a.84.84,0,1,1,.84.84H8v.84h5.87a1.68,1.68,0,1,0,0-3.36Zm0,0"/><path class="cls-3" d="M15.73,14.89c2.94.84,8.18,4.2,8.18,4.2"/><path class="cls-3" d="M3.57,14.48c-.84,0-2.94,1.68-2.94,1.68"/></g></svg>