<svg xmlns="http://www.w3.org/2000/svg" viewBox="0 0 37 46"><title>IconoPDFparaAire</title><g id="TEXTOS"><g style="opacity:0.15"><path d="M25.67,6.32l7.65,7.74V34.48a1.23,1.23,0,0,1-1.23,1.23H11.88a1.23,1.23,0,0,1-1.22-1.23V7.55a1.23,1.23,0,0,1,1.22-1.23H25.67m.41-1H11.88A2.23,2.23,0,0,0,9.66,7.55V34.48a2.24,2.24,0,0,0,2.22,2.23H32.09a2.25,2.25,0,0,0,2.23-2.23V13.64L26.08,5.32Z" style="fill:#000100"/><path d="M26.1,5.32v6.09a2.24,2.24,0,0,0,2.23,2.22h6Z" style="fill:#000100"/><rect x="4.31" y="13.05" width="20.21" height="11.16" rx="5.1" style="fill:#000100"/><text transform="translate(8.84 21.01)" style="font-size:7.035820007324219px;fill:#000100;font-family:BebasNeue, Bebas Neue">PDF</text><polygon points="24.97 33.5 24.97 26.5 18.41 26.5 18.41 33.5 14.8 33.5 21.89 42.3 28.98 33.5 24.97 33.5" style="fill:#000100"/></g><path d="M24.35,5,32,12.74V33.17a1.24,1.24,0,0,1-1.23,1.23H10.57a1.24,1.24,0,0,1-1.23-1.23V6.24A1.24,1.24,0,0,1,10.57,5H24.35m.42-1H10.57A2.24,2.24,0,0,0,8.34,6.24V33.17a2.25,2.25,0,0,0,2.23,2.23H30.78A2.25,2.25,0,0,0,33,33.17V12.33L24.77,4Z" style="fill:#0f80b8"/><path d="M24.79,4v6.08A2.24,2.24,0,0,0,27,12.32h6Z" style="fill:#0f80b8"/><rect x="2.99" y="11.74" width="20.21" height="11.16" rx="5.1" style="fill:#0f80b8"/><text transform="translate(7.53 19.7)" style="font-size:7.035820007324219px;fill:#fff;font-family:BebasNeue, Bebas Neue">PDF</text><polygon points="23.66 32.19 23.66 25.19 17.1 25.19 17.1 32.19 13.48 32.19 20.57 40.99 27.66 32.19 23.66 32.19" style="fill:#0f80b8"/></g></svg>