<svg xmlns="http://www.w3.org/2000/svg" viewBox="0 0 38 44"><title>IconoPDFparaMedicamentos</title><g id="TEXTOS"><g style="opacity:0.15"><path d="M26.67,5.82l7.65,7.74V34a1.23,1.23,0,0,1-1.23,1.23H12.88A1.23,1.23,0,0,1,11.66,34V7.05a1.23,1.23,0,0,1,1.22-1.23H26.67m.41-1H12.88a2.23,2.23,0,0,0-2.22,2.23V34a2.24,2.24,0,0,0,2.22,2.23H33.09A2.25,2.25,0,0,0,35.32,34V13.14L27.08,4.82Z" style="fill:#000100"/><path d="M27.1,4.82v6.09a2.24,2.24,0,0,0,2.23,2.22h6Z" style="fill:#000100"/><rect x="5.31" y="12.55" width="20.21" height="11.16" rx="5.1" style="fill:#000100"/><text transform="translate(9.84 20.51)" style="font-size:7.035820007324219px;fill:#000100;font-family:BebasNeue, Bebas Neue">PDF</text><polygon points="25.97 33 25.97 26 19.41 26 19.41 33 15.8 33 22.89 41.8 29.98 33 25.97 33" style="fill:#000100"/></g><path d="M25.35,4.51,33,12.24V32.67a1.24,1.24,0,0,1-1.23,1.23H11.57a1.24,1.24,0,0,1-1.23-1.23V5.74a1.24,1.24,0,0,1,1.23-1.23H25.35m.42-1H11.57A2.24,2.24,0,0,0,9.34,5.74V32.67a2.25,2.25,0,0,0,2.23,2.23H31.78A2.25,2.25,0,0,0,34,32.67V11.83L25.77,3.51Z" style="fill:#662d8d"/><path d="M25.79,3.51V9.59A2.24,2.24,0,0,0,28,11.82h6Z" style="fill:#662d8d"/><rect x="3.99" y="11.24" width="20.21" height="11.16" rx="5.1" style="fill:#662d8d"/><text transform="translate(8.53 19.2)" style="font-size:7.035820007324219px;fill:#fff;font-family:BebasNeue, Bebas Neue">PDF</text><polygon points="24.66 31.69 24.66 24.69 18.1 24.69 18.1 31.69 14.48 31.69 21.57 40.49 28.66 31.69 24.66 31.69" style="fill:#662d8d"/></g></svg>