<svg xmlns="http://www.w3.org/2000/svg" viewBox="0 0 37 41"><title>IconoPDFparaETOZ</title><g id="TEXTOS"><g style="opacity:0.15"><path d="M26.58,3.32H12.38a2.23,2.23,0,0,0-2.22,2.23V32.48a2.24,2.24,0,0,0,2.22,2.23H32.59a2.25,2.25,0,0,0,2.23-2.23V11.64Z" style="fill:none;stroke:#000100;stroke-miterlimit:10"/><path d="M26.6,3.32V9.41a2.24,2.24,0,0,0,2.23,2.22h6Z" style="fill:#000100"/><rect x="4.81" y="11.05" width="20.21" height="11.16" rx="5.1" style="fill:#000100"/><text transform="translate(9.34 19.01)" style="font-size:7.035820007324219px;fill:#000100;font-family:BebasNeue, Bebas Neue">PDF</text><polygon points="25.47 31.5 25.47 24.5 18.91 24.5 18.91 31.5 15.3 31.5 22.39 40.3 29.48 31.5 25.47 31.5" style="fill:#000100"/></g><path d="M25.27,2H11.07A2.24,2.24,0,0,0,8.84,4.24V31.17a2.25,2.25,0,0,0,2.23,2.23H31.28a2.25,2.25,0,0,0,2.23-2.23V10.33Z" style="fill:none;stroke:#0ec546;stroke-miterlimit:10"/><path d="M25.29,2V8.09a2.24,2.24,0,0,0,2.23,2.23h6Z" style="fill:#0ec546"/><rect x="3.49" y="9.74" width="20.21" height="11.16" rx="5.1" style="fill:#0ec546"/><text transform="translate(8.03 17.7)" style="font-size:7.035820007324219px;fill:#fff;font-family:BebasNeue, Bebas Neue">PDF</text><polygon points="24.16 30.19 24.16 23.19 17.6 23.19 17.6 30.19 13.98 30.19 21.07 38.99 28.16 30.19 24.16 30.19" style="fill:#0ec546"/></g></svg>