<svg xmlns="http://www.w3.org/2000/svg" viewBox="0 0 37 47"><title>IconoPDFparaAguaSaneamiento</title><g id="TEXTOS"><g style="opacity:0.15"><path d="M26.58,6.32H12.38a2.23,2.23,0,0,0-2.22,2.23V35.48a2.24,2.24,0,0,0,2.22,2.23H32.59a2.25,2.25,0,0,0,2.23-2.23V14.64Z" style="fill:none;stroke:#000100;stroke-miterlimit:10"/><path d="M26.6,6.32v6.09a2.24,2.24,0,0,0,2.23,2.22h6Z" style="fill:#000100"/><rect x="4.81" y="14.05" width="20.21" height="11.16" rx="5.1" style="fill:#000100"/><text transform="translate(9.34 22.01)" style="font-size:7.035820007324219px;fill:#000100;font-family:BebasNeue, Bebas Neue">PDF</text><polygon points="25.47 34.5 25.47 27.5 18.91 27.5 18.91 34.5 15.3 34.5 22.39 43.3 29.48 34.5 25.47 34.5" style="fill:#000100"/></g><path d="M25.27,5H11.07A2.24,2.24,0,0,0,8.84,7.24V34.17a2.25,2.25,0,0,0,2.23,2.23H31.28a2.25,2.25,0,0,0,2.23-2.23V13.33Z" style="fill:none;stroke:#00b8cd;stroke-miterlimit:10"/><path d="M25.29,5v6.08a2.24,2.24,0,0,0,2.23,2.23h6Z" style="fill:#00b8cd"/><rect x="3.49" y="12.74" width="20.21" height="11.16" rx="5.1" style="fill:#00b8cd"/><text transform="translate(8.03 20.7)" style="font-size:7.035820007324219px;fill:#fff;font-family:BebasNeue, Bebas Neue">PDF</text><polygon points="24.16 33.19 24.16 26.19 17.6 26.19 17.6 33.19 13.98 33.19 21.07 41.99 28.16 33.19 24.16 33.19" style="fill:#00b8cd"/></g></svg>