<svg xmlns="http://www.w3.org/2000/svg" viewBox="0 0 65 65"><title>IconoEstablecimientoFavorablessinfondo</title><g id="TEXTOS"><path d="M20.6,36.59c.12,1.1,1.14,2.65,1.84,2.65a.48.48,0,0,0,.23-.07,9.26,9.26,0,0,0,1.86,2.41h5.28a7.63,7.63,0,0,0,1.59-2.45.61.61,0,0,0,.3.11c.7,0,1.53-1.55,1.54-2.65s-.09-2-.82-2a1.57,1.57,0,0,0-.28,0c-.06-3.21-.9-7.53-5.82-7.53-4.59,0-5.25,4.31-4.94,7.52l-.21,0c-.73,0-.71.93-.57,2Zm0,0" style="fill:#fff"/><path d="M50.48,32.65l.32-2a1.09,1.09,0,0,0-1-1.35H34.89A12,12,0,0,1,35.71,33a2,2,0,0,1,.72.9H49.09a1.5,1.5,0,0,0,1.39-1.27Zm0,0" style="fill:#fff"/><path d="M48,41.4a1.33,1.33,0,0,0,1.27-1.07l.27-1.75a1,1,0,0,0-1-1.14H36.65a4,4,0,0,1-2.22,2.78l-.1.16v1Zm0,0" style="fill:#fff"/><path d="M12.72,41.07,10.28,24.8a3.63,3.63,0,0,1,3.63-3.62h37a3.63,3.63,0,0,1,3.63,3.62L52.4,40.88h3.24L57.81,24.8a6.88,6.88,0,0,0-6.87-6.87h-37A6.88,6.88,0,0,0,7,24.8L9.48,41.07Zm0,0" style="fill:#fff"/><path d="M8.92,43.2a2.31,2.31,0,0,0-2.29,2.65l1.9,13H56.48l1.89-13A2.34,2.34,0,0,0,57.83,44a2.31,2.31,0,0,0-1.75-.8Zm0,0" style="fill:#fff"/><path d="M48.67,15.33l.59-2.53a.89.89,0,0,0-.17-.74.88.88,0,0,0-.68-.33H15.14a.89.89,0,0,0-.69.34.86.86,0,0,0-.16.76l.62,2.5Zm0,0" style="fill:#fff"/><path d="M45.33,9.74l.48-2.58a.81.81,0,0,0-.19-.7A.84.84,0,0,0,45,6.14H18.57a.86.86,0,0,0-.67.32.88.88,0,0,0-.18.72l.51,2.56Zm0,0" style="fill:#fff"/></g></svg>