<svg xmlns="http://www.w3.org/2000/svg" viewBox="0 0 37 43"><title>IconoPDFparaSeguridadQuimica</title><g id="TEXTOS"><g style="opacity:0.15"><path d="M26.58,4.32H12.38a2.23,2.23,0,0,0-2.22,2.23V33.48a2.24,2.24,0,0,0,2.22,2.23H32.59a2.25,2.25,0,0,0,2.23-2.23V12.64Z" style="fill:none;stroke:#000100;stroke-miterlimit:10"/><path d="M26.6,4.32v6.09a2.24,2.24,0,0,0,2.23,2.22h6Z" style="fill:#000100"/><rect x="4.81" y="12.05" width="20.21" height="11.16" rx="5.1" style="fill:#000100"/><text transform="translate(9.34 20.01)" style="font-size:7.035820007324219px;fill:#000100;font-family:BebasNeue, Bebas Neue">PDF</text><polygon points="25.47 32.5 25.47 25.5 18.91 25.5 18.91 32.5 15.3 32.5 22.39 41.3 29.48 32.5 25.47 32.5" style="fill:#000100"/></g><path d="M25.27,3H11.07A2.24,2.24,0,0,0,8.84,5.24V32.17a2.25,2.25,0,0,0,2.23,2.23H31.28a2.25,2.25,0,0,0,2.23-2.23V11.33Z" style="fill:none;stroke:#ed5a24;stroke-miterlimit:10"/><path d="M25.29,3V9.09a2.24,2.24,0,0,0,2.23,2.23h6Z" style="fill:#ed5a24"/><rect x="3.49" y="10.74" width="20.21" height="11.16" rx="5.1" style="fill:#ed5a24"/><text transform="translate(8.03 18.7)" style="font-size:7.035820007324219px;fill:#fff;font-family:BebasNeue, Bebas Neue">PDF</text><polygon points="24.16 31.19 24.16 24.19 17.6 24.19 17.6 31.19 13.98 31.19 21.07 39.99 28.16 31.19 24.16 31.19" style="fill:#ed5a24"/></g></svg>